<svg width="365" height="281" viewBox="0 0 365 281" fill="none" xmlns="http://www.w3.org/2000/svg">
<path opacity="0.16" d="M361 279.5H358.493V280.5H361V279.5ZM353.479 279.5H348.465V280.5H353.479V279.5ZM343.451 279.5H338.438V280.5H343.451V279.5ZM333.424 279.5H328.41V280.5H333.424V279.5ZM323.396 279.5H318.382V280.5H323.396V279.5ZM313.368 279.5H308.354V280.5H313.368V279.5ZM303.34 279.5H298.326V280.5H303.34V279.5ZM293.312 279.5H288.299V280.5H293.312V279.5ZM283.285 279.5H278.271V280.5H283.285V279.5ZM273.257 279.5H268.243V280.5H273.257V279.5ZM263.229 279.5H258.215V280.5H263.229V279.5ZM253.201 279.5H248.188V280.5H253.201V279.5ZM243.174 279.5H238.16V280.5H243.174V279.5ZM233.146 279.5H228.132V280.5H233.146V279.5ZM223.118 279.5H218.104V280.5H223.118V279.5ZM213.09 279.5H208.076V280.5H213.09V279.5ZM203.063 279.5H198.049V280.5H203.063V279.5ZM193.035 279.5H188.021V280.5H193.035V279.5ZM183.007 279.5H177.993V280.5H183.007V279.5ZM172.979 279.5H167.965V280.5H172.979V279.5ZM162.951 279.5H157.938V280.5H162.951V279.5ZM152.924 279.5H147.91V280.5H152.924V279.5ZM142.896 279.5H137.882V280.5H142.896V279.5ZM132.868 279.5H127.854V280.5H132.868V279.5ZM122.84 279.5H117.827V280.5H122.84V279.5ZM112.813 279.5H107.799V280.5H112.813V279.5ZM102.785 279.5H97.771V280.5H102.785V279.5ZM92.7571 279.5H87.7432V280.5H92.7571V279.5ZM82.7293 279.5H77.7155V280.5H82.7293V279.5ZM72.7016 279.5H67.6877V280.5H72.7016V279.5ZM62.6738 279.5H57.6599V280.5H62.6738V279.5ZM52.646 279.5H47.6321V280.5H52.646V279.5ZM42.6182 279.5H37.6044V280.5H42.6182V279.5ZM32.5905 279.5H27.5766V280.5H32.5905V279.5ZM22.5627 279.5H17.5488V280.5H22.5627V279.5ZM12.5349 279.5H7.52103V280.5H12.5349V279.5ZM2.50717 279.5H0V280.5H2.50717V279.5Z" fill="#363735"/>
<path opacity="0.16" d="M200 0L200 191" stroke="#363735" stroke-dasharray="5 5"/>
<path opacity="0.16" d="M200 192L364 280" stroke="#363735" stroke-dasharray="5 5"/>
</svg>
