<svg width="176" height="117" viewBox="0 0 176 117" fill="none" xmlns="http://www.w3.org/2000/svg">
    <path opacity="0.5" d="M-1.19401e-05 117L5.76248 116.644L2.57262 111.831L-1.19401e-05 117ZM174.724 0.583244L172.64 1.9642L173.193 2.79771L175.276 1.41676L174.724 0.583244ZM168.474 4.7261L164.307 7.48801L164.86 8.32152L169.026 5.55961L168.474 4.7261ZM160.14 10.2499L155.974 13.0118L156.526 13.8453L160.693 11.0834L160.14 10.2499ZM151.807 15.7737L147.64 18.5356L148.193 19.3691L152.36 16.6072L151.807 15.7737ZM143.474 21.2975L139.307 24.0594L139.86 24.8929L144.026 22.131L143.474 21.2975ZM135.14 26.8213L130.974 29.5832L131.526 30.4168L135.693 27.6549L135.14 26.8213ZM126.807 32.3452L122.64 35.1071L123.193 35.9406L127.36 33.1787L126.807 32.3452ZM118.474 37.869L114.307 40.6309L114.86 41.4644L119.026 38.7025L118.474 37.869ZM110.14 43.3928L105.974 46.1547L106.526 46.9882L110.693 44.2263L110.14 43.3928ZM101.807 48.9166L97.6404 51.6785L98.1929 52.512L102.36 49.7501L101.807 48.9166ZM93.4737 54.4404L89.3071 57.2023L89.8596 58.0358L94.0262 55.2739L93.4737 54.4404ZM85.1404 59.9642L80.9737 62.7261L81.5262 63.5596L85.6929 60.7977L85.1404 59.9642ZM76.8071 65.488L72.6404 68.2499L73.1929 69.0834L77.3596 66.3215L76.8071 65.488ZM68.4737 71.0118L64.3071 73.7737L64.8596 74.6073L69.0262 71.8453L68.4737 71.0118ZM60.1404 76.5356L55.9737 79.2975L56.5262 80.1311L60.6929 77.3692L60.1404 76.5356ZM51.8071 82.0594L47.6404 84.8213L48.1929 85.6549L52.3596 82.893L51.8071 82.0594ZM43.4737 87.5832L39.3071 90.3451L39.8596 91.1787L44.0262 88.4168L43.4737 87.5832ZM35.1404 93.107L30.9738 95.869L31.5263 96.7025L35.6929 93.9406L35.1404 93.107ZM26.8071 98.6309L22.6404 101.393L23.1929 102.226L27.3596 99.4644L26.8071 98.6309ZM18.4738 104.155L14.3071 106.917L14.8596 107.75L19.0263 104.988L18.4738 104.155ZM10.1404 109.678L5.97379 112.44L6.52629 113.274L10.6929 110.512L10.1404 109.678Z" fill="white"/>
</svg>
