<svg width="50" height="32" viewBox="0 0 50 32" fill="none" xmlns="http://www.w3.org/2000/svg">
<rect x="0.25" y="0.25" width="49.5" height="31.5" rx="1.75" stroke="white" stroke-width="0.5"/>
<path d="M33.6984 10.6063C32.8074 10.2816 31.8656 10.1187 30.9173 10.1252C27.8506 10.1252 25.6848 11.67 25.6695 13.8876C25.6503 15.5168 27.2085 16.4349 28.3873 16.9792C29.5967 17.5389 30.0011 17.8915 29.9973 18.3918C29.9896 19.1527 29.0313 19.4977 28.14 19.4977C26.9153 19.4977 26.2464 19.3271 25.2171 18.8997L24.8357 18.7214L24.4006 21.2744C25.1462 21.5849 26.4898 21.8514 27.8775 21.8744C31.1377 21.8744 33.269 20.3391 33.294 17.9797C33.3208 16.6783 32.4775 15.695 30.7026 14.8824C29.6235 14.3553 28.9546 14.0026 28.9546 13.4679C28.9546 12.9944 29.5277 12.4884 30.7256 12.4884C31.5229 12.4691 32.3152 12.6187 33.0505 12.9274L33.338 13.0558L33.7731 10.589L33.6984 10.6063ZM41.6564 10.3322H39.2606C38.515 10.3322 37.9534 10.5373 37.6276 11.2771L33.0199 21.7153H36.2801L36.9318 20.0037L40.9108 20.0075C41.0047 20.4081 41.2922 21.7153 41.2922 21.7153H44.1672L41.6564 10.3322ZM21.2592 10.2364H24.3661L22.4226 21.6252H19.3195L21.2592 10.2325V10.2364ZM13.3721 16.5134L13.6941 18.0947L16.7301 10.3322H20.021L15.1316 21.6999H11.8484L9.16504 12.0744C9.12158 11.9157 9.01952 11.7794 8.87946 11.693C7.91231 11.1934 6.88755 10.8143 5.82812 10.5641L5.87029 10.3245H10.8709C11.5494 10.3514 12.0956 10.5641 12.2777 11.2886L13.3702 16.5192V16.5134H13.3721ZM37.823 17.6749L39.0612 14.4894C39.0459 14.5239 39.3161 13.832 39.4733 13.4046L39.6861 14.3879L40.4048 17.673H37.8211V17.6749H37.823Z" fill="white"/>
</svg>
