<svg width="50" height="32" viewBox="0 0 50 32" fill="none" xmlns="http://www.w3.org/2000/svg">
<rect x="0.25" y="0.25" width="49.5" height="31.5" rx="1.75" stroke="white" stroke-width="0.5"/>
<path d="M24.2267 23.1128C24.2947 23.1709 24.3683 23.229 24.4406 23.2856C23.0046 24.2388 21.3191 24.7465 19.5956 24.7448C18.4468 24.7457 17.309 24.5202 16.2474 24.0811C15.1859 23.642 14.2213 22.9979 13.4088 22.1857C12.5963 21.3735 11.9519 20.4091 11.5125 19.3476C11.073 18.2862 10.8471 17.1485 10.8477 15.9997C10.8475 14.4175 11.2765 12.8648 12.0889 11.5071C12.9014 10.1493 14.0668 9.03738 15.4612 8.2896C16.8556 7.54182 18.4267 7.18622 20.0072 7.26067C21.5877 7.33512 23.1184 7.83684 24.4363 8.71239C24.3655 8.7733 24.2947 8.82855 24.2408 8.89089C23.2197 9.77264 22.4003 10.864 21.8386 12.0906C21.2768 13.3173 20.9858 14.6505 20.9853 15.9997C20.9853 18.7268 22.1654 21.3193 24.2267 23.1128ZM30.4047 7.25322C28.6828 7.24987 26.9985 7.75771 25.5654 8.71239C25.6348 8.7733 25.7057 8.82855 25.7595 8.89089C27.8307 10.6801 29.0164 13.2741 29.0164 15.9997C29.0164 18.7254 27.8335 21.3165 25.7751 23.1128C25.7057 23.1709 25.632 23.229 25.5612 23.2856C26.9959 24.2391 28.6807 24.7468 30.4033 24.7448C31.5612 24.7596 32.7105 24.5444 33.7845 24.1116C34.8586 23.6788 35.836 23.037 36.6601 22.2235C37.4841 21.4099 38.1385 20.4409 38.5851 19.3725C39.0317 18.3041 39.2618 17.1577 39.2618 15.9997C39.2619 14.8418 39.0321 13.6953 38.5856 12.6268C38.1392 11.5584 37.485 10.5892 36.6611 9.77558C35.8371 8.96193 34.8598 8.31999 33.7859 7.88699C32.7119 7.454 31.5626 7.23858 30.4047 7.25322ZM25.0002 9.12889C23.9586 9.94554 23.1168 10.9887 22.5385 12.1792C21.9602 13.3696 21.6606 14.6762 21.6625 15.9997C21.6597 17.324 21.9589 18.6315 22.5373 19.8228C23.1156 21.0141 23.9579 22.0579 25.0002 22.8748C26.0421 22.0575 26.8843 21.0137 27.4628 19.8225C28.0414 18.6313 28.3411 17.324 28.3392 15.9997C28.3412 14.6761 28.0415 13.3694 27.4629 12.1788C26.8843 10.9883 26.0421 9.94526 25.0002 9.12889Z" fill="white"/>
</svg>
