<svg width="18" height="20" viewBox="0 0 18 20" fill="none" xmlns="http://www.w3.org/2000/svg">
    <path d="M0 3.03936C0 2.93228 1.57193 2.35067 4.41554 1.40564C7.22 0.473741 8.94373 -0.0382971 9.13987 0.00223659C9.3097 0.0373405 11.2828 0.607843 13.5245 1.26989C15.7663 1.93207 17.7037 2.5301 17.8298 2.59892C17.9839 2.68289 18.0184 2.76573 17.9348 2.85121C17.8512 2.9367 16.397 2.55978 13.5055 1.70301C11.1379 1.00156 9.09898 0.427651 8.97473 0.427651C8.85035 0.427651 6.85577 1.0527 4.54215 1.81666C2.22852 2.58061 0.260112 3.20566 0.167725 3.20566C0.0754621 3.20566 0 3.13078 0 3.03936Z" fill="black"/>
    <path d="M3.33482 12.2342C3.17882 12.2342 3.14424 11.8996 3.11571 10.1191L3.08187 8.00404H7.69724C10.2358 8.00404 12.905 8.04104 13.6288 8.08637L14.9449 8.1687V10.1804C14.9449 11.7335 14.9097 12.1802 14.7905 12.1396C14.679 12.1017 14.6266 11.5956 14.602 10.3185L14.5678 8.5498L10.475 8.46633C8.22403 8.42049 5.75367 8.38286 4.98531 8.38286H3.58826L3.55417 10.3085C3.52564 11.9205 3.48995 12.2342 3.33482 12.2342Z" fill="black"/>
    <path d="M10.0933 11.9335C10.0292 11.868 10.0149 11.7508 10.0618 11.6733C10.1192 11.5783 10.6584 11.5439 11.7122 11.5676C13.0059 11.5968 13.2775 11.6357 13.2775 11.7922C13.2775 11.9486 13.0092 11.9878 11.7437 12.0173C10.8937 12.037 10.158 11.9997 10.0933 11.9335Z" fill="black"/>
    <path d="M4.84685 11.9866C4.75384 11.9502 4.71333 11.8614 4.75681 11.7896C4.80658 11.7073 5.42759 11.6718 6.43248 11.694C7.39155 11.7151 8.029 11.7795 8.02912 11.8554C8.02912 11.9308 7.42132 11.996 6.52252 12.0173C5.69388 12.037 4.93985 12.0231 4.84685 11.9866Z" fill="black"/>
    <path d="M1.38617 15.712C1.36728 14.6384 1.37506 13.6985 1.40334 13.6231C1.4399 13.5258 3.63866 13.5005 8.97177 13.5357C13.1062 13.5631 16.5272 13.6223 16.5743 13.6675C16.6213 13.7126 16.6987 14.6078 16.7462 15.6567C16.8128 17.1265 16.7971 17.5863 16.6778 17.6617C16.5886 17.718 16.4772 17.6857 16.4152 17.5854C16.3558 17.4897 16.3065 16.6675 16.3054 15.7582L16.3035 14.1051L13.9877 14.0224C12.714 13.9769 9.46408 13.9394 6.7656 13.9393L1.85922 13.9389L1.82513 15.8014C1.7966 17.3572 1.76041 17.6639 1.60565 17.6639C1.4504 17.6639 1.41483 17.3474 1.38617 15.712Z" fill="black"/>
    <path d="M0.0532373 18.4706C0.00654986 18.3934 0.0256906 18.2939 0.0958452 18.2496C0.166 18.2053 3.60519 18.1832 7.73851 18.2006C11.8718 18.2179 15.8817 18.2663 16.6492 18.3082C17.6171 18.3608 18.0306 18.4285 17.9982 18.5292C17.9727 18.6088 17.695 18.6913 17.3814 18.7124L16.8112 18.7505L16.7735 19.2806C16.7472 19.6504 16.6799 19.8106 16.5506 19.8106C16.4221 19.8106 16.3539 19.6522 16.3282 19.2941L16.2913 18.7777L12.6846 18.6946C10.701 18.6489 7.45245 18.6114 5.46539 18.6112L1.85268 18.611V19.3055C1.85268 19.8386 1.80969 20 1.66741 20C1.52512 20 1.48214 19.8386 1.48214 19.3055V18.611H0.810116C0.440445 18.611 0.0999247 18.5479 0.0532373 18.4706Z" fill="black"/>
</svg>