<svg width="25" height="22" viewBox="0 0 25 22" fill="none" xmlns="http://www.w3.org/2000/svg">
<path d="M8.88222 13.8965C8.88222 12.4259 9.32556 10.9883 10.1562 9.76553C10.9868 8.54276 12.1674 7.58972 13.5486 7.02694C14.9299 6.46416 16.4498 6.31691 17.9161 6.60381C19.3824 6.89072 20.7294 7.59889 21.7865 8.63877C22.8437 9.67865 23.5636 11.0035 23.8553 12.4459C24.147 13.8883 23.9973 15.3833 23.4251 16.742C22.853 18.1007 21.8841 19.2619 20.641 20.079C19.3979 20.896 17.9365 21.3321 16.4414 21.3321H7.54825C6.83807 21.3315 6.13653 21.1788 5.4924 20.8846C4.84827 20.5904 4.277 20.1617 3.81829 19.6284C3.35958 19.0951 3.02444 18.4699 2.83616 17.7964C2.64788 17.1228 2.61097 16.417 2.72801 15.728C2.84504 15.0389 3.11321 14.3832 3.51388 13.8065C3.91455 13.2297 4.43809 12.7456 5.04814 12.388C5.65819 12.0303 6.34009 11.8076 7.04647 11.7354C7.75285 11.6631 8.46674 11.7431 9.13855 11.9696" stroke="white" stroke-width="1.33333" stroke-linecap="round" stroke-linejoin="round"/>
<path d="M7.95645 3.91648L7.49316 1.33203" stroke="white" stroke-width="1.33333" stroke-linecap="round" stroke-linejoin="round"/>
<path d="M4.51064 6.07361L2.3252 4.56836" stroke="white" stroke-width="1.33333" stroke-linecap="round" stroke-linejoin="round"/>
<path d="M3.62741 9.99414L1 10.4498" stroke="white" stroke-width="1.33333" stroke-linecap="round" stroke-linejoin="round"/>
<path d="M11.9404 4.78643L13.4707 2.63672" stroke="white" stroke-width="1.33333" stroke-linecap="round" stroke-linejoin="round"/>
<path d="M4.84077 12.5135C4.34014 11.9426 3.97037 11.2724 3.75664 10.5484C3.5429 9.82441 3.49021 9.06362 3.60214 8.3178C3.71408 7.57198 3.98801 6.85863 4.40532 6.22627C4.82262 5.59391 5.37349 5.05739 6.02046 4.65319C6.66744 4.249 7.39532 3.98662 8.15461 3.88391C8.9139 3.7812 9.68677 3.84056 10.4206 4.05796C11.1545 4.27536 11.8322 4.6457 12.4075 5.14378C12.9829 5.64186 13.4424 6.256 13.7549 6.94441" stroke="white" stroke-width="1.33333" stroke-linecap="round" stroke-linejoin="round"/>
</svg>
