<svg width="504" height="6" viewBox="0 0 504 6" fill="none" xmlns="http://www.w3.org/2000/svg">
  <path opacity="0.5" d="M504 3L499 0.113249V5.88675L504 3ZM496.44 2.5L491.4 2.5V3.5L496.44 3.5V2.5ZM486.36 2.5L481.32 2.5V3.5L486.36 3.5V2.5ZM476.28 2.5H471.24V3.5H476.28V2.5ZM466.2 2.5L461.16 2.5V3.5L466.2 3.5V2.5ZM456.12 2.5H451.08V3.5H456.12V2.5ZM446.04 2.5L441 2.5V3.5L446.04 3.5V2.5ZM435.96 2.5L430.92 2.5V3.5L435.96 3.5V2.5ZM425.88 2.5L420.84 2.5V3.5L425.88 3.5V2.5ZM415.8 2.5L410.76 2.5V3.5L415.8 3.5V2.5ZM405.72 2.5H400.68V3.5H405.72V2.5ZM395.64 2.5L390.6 2.5V3.5L395.64 3.5V2.5ZM385.56 2.5L380.52 2.5V3.5L385.56 3.5V2.5ZM375.48 2.5H370.44V3.5H375.48V2.5ZM365.4 2.5L360.36 2.5V3.5L365.4 3.5V2.5ZM355.32 2.5L350.28 2.5V3.5L355.32 3.5V2.5ZM345.24 2.5L340.2 2.5V3.5L345.24 3.5V2.5ZM335.16 2.5L330.12 2.5V3.5L335.16 3.5V2.5ZM325.08 2.5H320.04V3.5H325.08V2.5ZM315 2.5L309.96 2.5V3.5L315 3.5V2.5ZM304.92 2.5H299.88V3.5H304.92V2.5ZM294.84 2.5L289.8 2.5V3.5L294.84 3.5V2.5ZM284.76 2.5L279.72 2.5V3.5L284.76 3.5V2.5ZM274.68 2.5H269.64V3.5H274.68V2.5ZM264.6 2.5L259.56 2.5V3.5L264.6 3.5V2.5ZM254.52 2.5L249.48 2.5V3.5L254.52 3.5V2.5ZM244.44 2.5H239.4V3.5H244.44V2.5ZM234.36 2.5L229.32 2.5V3.5L234.36 3.5V2.5ZM224.28 2.5H219.24V3.5H224.28V2.5ZM214.2 2.5L209.16 2.5V3.5L214.2 3.5V2.5ZM204.12 2.5L199.08 2.5V3.5L204.12 3.5V2.5ZM194.04 2.5H189V3.5H194.04V2.5ZM183.96 2.5L178.92 2.5V3.5L183.96 3.5V2.5ZM173.88 2.5H168.84V3.5H173.88V2.5ZM163.8 2.5L158.76 2.5V3.5L163.8 3.5V2.5ZM153.72 2.5L148.68 2.5V3.5L153.72 3.5V2.5ZM143.64 2.5H138.6V3.5H143.64V2.5ZM133.56 2.5L128.52 2.5V3.5L133.56 3.5V2.5ZM123.48 2.5L118.44 2.5V3.5L123.48 3.5V2.5ZM113.4 2.5H108.36V3.5H113.4V2.5ZM103.32 2.5L98.2799 2.5V3.5L103.32 3.5V2.5ZM93.2399 2.5H88.1999V3.5H93.2399V2.5ZM83.1599 2.5L78.1199 2.5V3.5L83.1599 3.5V2.5ZM73.0799 2.5L68.0399 2.5V3.5L73.0799 3.5V2.5ZM62.9999 2.5L57.9598 2.5V3.5L62.9999 3.5V2.5ZM52.9199 2.5L47.8798 2.5V3.5L52.9199 3.5V2.5ZM42.8398 2.5H37.7998V3.5H42.8398V2.5ZM32.7598 2.5L27.7198 2.5V3.5L32.7598 3.5V2.5ZM22.6798 2.5L17.6398 2.5V3.5L22.6798 3.5V2.5ZM12.5998 2.5H7.55978V3.5H12.5998V2.5ZM2.51977 2.5L-4.76835e-07 2.5V3.5L2.51977 3.5V2.5Z" fill="white"/>
</svg>