<svg width="500" height="449" viewBox="0 0 500 449" fill="none" xmlns="http://www.w3.org/2000/svg">
<path d="M190.802 436.716L249.98 370.158L309.16 436.716H190.802ZM76.032 362.417V297.375L88.4489 283.414V362.417H100.237V270.149L130.653 235.944L161.062 270.145V362.417H172.851V283.405L185.265 297.369V362.417H197.056V310.628L209.471 324.595V362.417H221.259V337.856L241.912 361.086L170.801 441.064C168.686 443.443 169.011 445.226 169.392 446.079C169.776 446.929 170.896 448.353 174.07 448.353H325.887C327.629 448.353 329.161 447.362 329.88 445.768C330.596 444.175 330.319 442.372 329.156 441.064L258.049 361.083L278.695 337.861V362.414H290.486V324.6L302.901 310.635V362.414H314.689V297.377L327.101 283.414V362.414H338.89V270.152L369.307 235.938L399.714 270.145V362.414H411.506V283.405L423.922 297.369V362.414H435.709V310.628L448.128 324.595V362.414H459.917V337.856L481.661 362.312L481.761 362.422H497.895L369.548 218.06L369.299 217.781L249.977 352.01L130.896 218.081L130.645 217.802L2.56378 361.87L2.06689 362.43L18.2016 362.422L40.0379 337.861V362.417H51.8269V324.6L64.2407 310.635V362.417H76.032Z" stroke="white"/>
<path d="M124.446 268.297H112.652V362.418H124.446V268.297Z" stroke="white"/>
<path d="M148.648 268.297H136.859V362.418H148.648V268.297Z" stroke="white"/>
<path d="M351.306 362.417H363.1V268.296H351.306V362.417Z" stroke="white"/>
<path d="M387.303 268.297H375.514V362.418H387.303V268.297Z" stroke="white"/>
<path d="M261.575 52.7065C265.591 52.7065 268.857 49.4412 268.857 45.4255C268.857 41.4067 265.591 38.1414 261.575 38.1414C257.556 38.1414 254.291 41.4067 254.291 45.4255C254.291 49.4412 257.556 52.7065 261.575 52.7065Z" stroke="white"/>
<path d="M158.05 205.126L249.974 101.724L341.907 205.124L249.977 308.523L158.05 205.126ZM249.977 326.668L357.843 205.344L358.041 205.118L258.323 92.9626C293.271 55.5123 322.041 52.4031 327.464 52.1604C329.979 52.0271 332.024 50.4638 333.237 47.7205L333.564 46.602C334.006 44.3587 333.562 42.9339 331.906 41.3284L331.24 40.7687C308.713 21.8732 277.72 19.5778 265.442 19.4684C262.684 19.4446 255.941 19.3351 253.868 19.1675C226.462 16.9403 215.181 7.83397 210.895 2.60401L210.618 2.26714L210.192 2.15688C206.066 1.10645 201.898 0.771872 197.76 1.15085L196.095 1.30474L196.607 2.89418C197.427 5.44906 206.001 27.9652 253.039 31.7328C255.465 31.9288 262.26 32.0574 265.069 32.1041C273.145 32.2404 293.642 33.5366 311.186 42.5465C296.931 46.863 269.458 59.2906 240.199 94.4923L142.101 204.917L141.903 205.142L249.726 326.388L249.977 326.668Z" stroke="white"/>
</svg>
