<svg width="499" height="449" viewBox="0 0 499 449" fill="none" xmlns="http://www.w3.org/2000/svg">
<g opacity="0.06">
<path d="M190.736 436.363L249.913 369.805L309.093 436.363H190.736ZM75.9651 362.064V297.022L88.382 283.061V362.064H100.17V269.796L130.586 235.591L160.995 269.792V362.064H172.784V283.052L185.198 297.016V362.064H196.989V310.275L209.404 324.242V362.064H221.192V337.502L241.845 360.733L170.734 440.711C168.619 443.09 168.944 444.873 169.325 445.726C169.709 446.576 170.829 448 174.003 448H325.82C327.562 448 329.094 447.009 329.813 445.414C330.53 443.822 330.252 442.019 329.089 440.711L257.982 360.73L278.628 337.508V362.061H290.419V324.247L302.834 310.282V362.061H314.622V297.024L327.034 283.061V362.061H338.823V269.799L369.24 235.585L399.647 269.792V362.061H411.439V283.052L423.855 297.016V362.061H435.642V310.275L448.061 324.242V362.061H459.85V337.502L481.594 361.959L481.694 362.069H497.829L369.481 217.707L369.233 217.428L249.91 351.657L130.829 217.728L130.578 217.449L2.49689 361.517L2 362.077L18.1347 362.069L39.971 337.508V362.064H51.76V324.247L64.1738 310.282V362.064H75.9651Z" stroke="white"/>
<path d="M124.379 267.944H112.585V362.065H124.379V267.944Z" stroke="white"/>
<path d="M148.582 267.944H136.793V362.065H148.582V267.944Z" stroke="white"/>
<path d="M351.239 362.064H363.033V267.943H351.239V362.064Z" stroke="white"/>
<path d="M387.236 267.944H375.447V362.065H387.236V267.944Z" stroke="white"/>
<path d="M261.509 52.3535C265.524 52.3535 268.791 49.0881 268.791 45.0725C268.791 41.0537 265.524 37.7883 261.509 37.7883C257.49 37.7883 254.225 41.0537 254.225 45.0725C254.225 49.0881 257.49 52.3535 261.509 52.3535Z" stroke="white"/>
<path d="M157.983 204.773L249.907 101.371L341.84 204.771L249.91 308.17L157.983 204.773ZM249.91 326.315L357.776 204.991L357.974 204.765L258.256 92.6096C293.204 55.1592 321.974 52.05 327.397 51.8073C329.912 51.6741 331.957 50.1107 333.17 47.3675L333.497 46.2489C333.939 44.0057 333.495 42.5809 331.839 40.9753L331.173 40.4157C308.646 21.5201 277.653 19.2248 265.375 19.1153C262.617 19.0916 255.874 18.9821 253.8 18.8144C226.395 16.5872 215.114 7.48094 210.828 2.25098L210.551 1.91411L210.125 1.80385C205.999 0.753418 201.831 0.418845 197.693 0.797827L196.027 0.951709L196.54 2.54115C197.36 5.09603 205.934 27.6122 252.972 31.3798C255.398 31.5758 262.193 31.7044 265.001 31.7511C273.078 31.8874 293.575 33.1836 311.119 42.1934C296.864 46.51 269.391 58.9376 240.132 94.1393L142.034 204.564L141.836 204.789L249.659 326.035L249.91 326.315Z" stroke="white"/>
</g>
</svg>
