<svg width="154" height="40" viewBox="0 0 154 40" fill="none" xmlns="http://www.w3.org/2000/svg">
<path fill-rule="evenodd" clip-rule="evenodd" d="M1.26246 0.484765C1.41867 0.75128 1.74385 1.3112 1.98506 1.7288L2.42374 2.48818L6.70071 2.49166C9.05301 2.49358 11.3622 2.54398 11.8322 2.60372C12.3834 2.67369 12.9475 2.83862 13.421 3.06801C13.8248 3.26364 14.3732 3.62218 14.6396 3.86462C14.906 4.10706 15.286 4.5547 15.484 4.85947C15.6822 5.16423 15.9413 5.72178 16.06 6.09844C16.1818 6.48476 16.2759 7.1133 16.2759 7.54036C16.2759 7.95672 16.1933 8.57232 16.0925 8.90836C15.9915 9.24452 15.8057 9.71972 15.6794 9.96441C15.5531 10.2092 15.1733 10.6957 14.8353 11.0455C14.4694 11.4243 13.9335 11.8235 13.5108 12.0323C13.1202 12.2251 12.4675 12.4342 12.0601 12.4971C11.6528 12.56 10.4094 12.6119 9.29707 12.6123C8.18467 12.6129 7.27463 12.6409 7.27463 12.6748C7.27463 12.7085 7.51436 13.1516 7.8073 13.6592C8.10024 14.1666 8.44241 14.7288 8.56774 14.9082L8.79562 15.2345L10.5704 15.1641C11.5464 15.1253 12.6526 15.0164 13.0286 14.922C13.4046 14.8276 14.1481 14.5369 14.6808 14.276C15.4354 13.9065 15.8506 13.602 16.5608 12.8976C17.1669 12.2963 17.6116 11.7299 17.8883 11.2064C18.1172 10.7736 18.4064 10.0902 18.5311 9.68766C18.6559 9.28524 18.7921 8.57649 18.8339 8.11265C18.8844 7.55217 18.8542 6.96761 18.744 6.36945C18.6528 5.87445 18.4687 5.18358 18.3348 4.83426C18.2011 4.48495 17.881 3.87745 17.6238 3.48426C17.3666 3.09107 16.8414 2.46455 16.4566 2.09195C16.0233 1.67221 15.4117 1.23773 14.8487 0.949731C14.349 0.694242 13.6581 0.393752 13.3135 0.282152C12.7497 0.099563 12.0997 0.0751506 6.83266 0.0396004L0.978516 0L1.26246 0.484765ZM41.3428 5.29946V10.5856L36.787 10.6151L32.2312 10.6445L32.9452 11.882L33.659 13.1195L37.5008 13.1491L41.3428 13.1788V18.4085V23.6383H42.5961H43.8495V11.8257V0.0131626H42.5961H41.3428V5.29946ZM77.8037 11.8257V23.6383H86.5299H95.2562L94.8269 22.8789C94.5907 22.4612 94.2622 21.8917 94.0969 21.6133L93.7964 21.107L87.1104 21.078L80.4243 21.049V11.8248V2.60068H87.8305C91.9038 2.60068 95.2366 2.57424 95.2366 2.54184C95.2366 2.50944 94.9162 1.92781 94.5245 1.24932L93.8123 0.01575L85.808 0.0144003L77.8037 0.0131626V11.8257ZM133.706 2.79755C134.88 4.32902 135.947 5.71841 136.076 5.88513C136.312 6.18787 136.314 6.18821 137.891 6.19451C139.268 6.19991 139.461 6.17854 139.402 6.02733C139.365 5.93193 138.322 4.54131 137.083 2.93694L134.831 0.0199128L133.201 0.0165375L131.572 0.0131626L133.706 2.79755ZM141.041 11.3259C136.247 17.5414 132.152 22.8559 131.941 23.1358L131.557 23.6446L133.192 23.6133L134.828 23.582L138.532 18.7794C140.57 16.138 142.265 13.9737 142.299 13.97C142.334 13.9663 144.024 16.1207 146.056 18.7576C148.088 21.3945 149.806 23.5729 149.873 23.5985C149.941 23.6241 150.672 23.631 151.498 23.6136L152.999 23.582L148.501 17.7534C146.027 14.5477 144.003 11.8729 144.003 11.8093C144.003 11.7457 145.551 9.68574 147.444 7.23154C149.337 4.77734 151.365 2.14921 151.953 1.3913L153.02 0.0131626L151.389 0.0191253L149.757 0.0250876L141.041 11.3259ZM23.2263 11.8669V23.6457L24.5081 23.6139L25.7899 23.582L25.8191 14.075L25.8482 4.56798L24.604 2.39413C23.9198 1.19847 23.33 0.190464 23.2932 0.154239C23.2564 0.117901 23.2263 5.38856 23.2263 11.8669ZM126.2 2.25823L124.975 4.38978V14.014V23.6383H126.228H127.482V11.882C127.482 5.41601 127.469 0.125888 127.453 0.126113C127.438 0.126451 126.873 1.08586 126.2 2.25823ZM58.7187 0.403877C58.28 0.483865 57.5916 0.660041 57.1888 0.79538C56.7862 0.930718 56.1331 1.18632 55.7375 1.3634C55.342 1.54047 54.6238 1.95459 54.1415 2.28365C53.6592 2.61272 52.9443 3.19333 52.5529 3.57392C52.1617 3.95451 51.6014 4.58733 51.3081 4.98018C51.0148 5.37303 50.5558 6.12476 50.2881 6.6507C50.0205 7.17664 49.6726 8.01196 49.5151 8.50696C49.3575 9.00196 49.1645 9.80173 49.0862 10.2842C48.9964 10.8375 48.9681 11.6478 49.0097 12.478C49.0464 13.2097 49.1754 14.1708 49.3 14.6417C49.4234 15.1077 49.6838 15.897 49.8786 16.3958C50.0735 16.8947 50.5393 17.7537 50.9137 18.305C51.2881 18.8561 51.7915 19.5252 52.0322 19.7919L52.4699 20.2767L53.1946 19.1914C53.7027 18.4308 53.8874 18.0629 53.8124 17.9616C53.7535 17.8821 53.483 17.5032 53.2113 17.1196C52.9395 16.7358 52.5681 16.1074 52.3859 15.723C52.2037 15.3386 51.9461 14.6004 51.8136 14.0828C51.6096 13.2867 51.58 12.9063 51.6215 11.6119C51.6648 10.2547 51.7119 9.96159 52.0393 9.01558C52.2421 8.429 52.5561 7.69493 52.7369 7.38432C52.9179 7.07359 53.313 6.5175 53.6152 6.14839C53.9174 5.77927 54.5134 5.18808 54.9398 4.83449C55.366 4.48101 56.1343 3.98669 56.647 3.73603C57.1598 3.4855 57.9895 3.17263 58.4908 3.04101C59.195 2.85594 59.7263 2.80239 60.8266 2.8052C61.8931 2.8079 62.4772 2.86753 63.1521 3.04224C63.6478 3.17061 64.064 3.27568 64.0771 3.27568C64.0901 3.27568 64.4227 2.79373 64.8161 2.20456C65.2095 1.61551 65.5111 1.11612 65.4863 1.09486C65.4615 1.07359 65.1072 0.94793 64.699 0.81563C64.2907 0.683216 63.5556 0.499166 63.0653 0.406578C62.5603 0.311177 61.5979 0.242551 60.8451 0.248289C60.1142 0.253914 59.1574 0.323889 58.7187 0.403877ZM100.022 11.9945V23.6383H101.332H102.641L102.67 15.6295L102.7 7.62079L109.581 15.6295L116.463 23.6383H118.107H119.75L119.486 23.3062C119.34 23.1235 114.94 17.8874 109.707 11.6705C104.474 5.45358 100.155 0.363265 100.108 0.358764C100.06 0.354377 100.022 5.59038 100.022 11.9945ZM118.564 2.49808L117.338 4.63649L117.368 8.41032L117.398 12.1843L118.624 10.0571L119.851 7.92995L119.821 4.14475L119.791 0.359665L118.564 2.49808ZM68.4552 4.63345C67.9842 5.32522 67.7794 5.72156 67.8466 5.81145C67.9023 5.88592 68.1702 6.26077 68.4419 6.6444C68.7137 7.02814 69.0843 7.65477 69.2655 8.03693C69.4465 8.41921 69.7036 9.13697 69.8365 9.63197C70.0147 10.2955 70.0806 10.8867 70.0873 11.882C70.0937 12.8464 70.0387 13.4408 69.8947 13.963C69.7838 14.365 69.5651 14.9978 69.4087 15.3693C69.2523 15.7406 68.8976 16.4064 68.6206 16.8488C68.322 17.3254 67.7184 18.0254 67.1382 18.5678C66.3508 19.3036 65.9332 19.5913 65.0026 20.0385C64.3665 20.3442 63.5127 20.6839 63.1054 20.7934C62.5638 20.9388 61.9513 20.9914 60.8266 20.989C59.7717 20.9867 59.0736 20.9282 58.6048 20.8027C58.2288 20.702 57.8476 20.6028 57.7578 20.5821C57.6591 20.5594 57.3126 20.9441 56.8799 21.557C56.4868 22.1139 56.163 22.6034 56.1602 22.6447C56.1573 22.6861 56.4756 22.8241 56.8672 22.9515C57.2589 23.0788 57.9382 23.2673 58.3769 23.3701C58.9355 23.5012 59.6694 23.5559 60.8266 23.5531C61.9797 23.5503 62.7365 23.49 63.3318 23.3537C63.801 23.2461 64.5077 23.0382 64.9021 22.8916C65.2965 22.745 65.9637 22.4524 66.3847 22.2414C66.8058 22.0303 67.4323 21.649 67.777 21.3938C68.1216 21.1388 68.7274 20.6172 69.1233 20.2347C69.5192 19.8523 70.0879 19.2087 70.3871 18.8045C70.6863 18.4003 71.0883 17.7911 71.2803 17.4508C71.4722 17.1104 71.7854 16.3922 71.9761 15.8548C72.167 15.3173 72.4026 14.4638 72.4997 13.958C72.5969 13.4522 72.6764 12.5179 72.6764 11.882C72.6764 11.246 72.5989 10.322 72.5041 9.82884C72.4093 9.33575 72.2115 8.58335 72.0645 8.15708C71.9174 7.73071 71.6044 7.00226 71.3689 6.5382C71.1333 6.07413 70.6944 5.36538 70.3934 4.96319C70.0923 4.561 69.693 4.08771 69.5057 3.91142L69.1652 3.59091L68.4552 4.63345ZM84.3662 11.3476C84.6024 11.7653 84.9309 12.3348 85.0961 12.6132L85.3967 13.1195L90.3265 13.1489C93.038 13.1649 95.2391 13.1374 95.218 13.0877C95.1969 13.0379 94.872 12.456 94.496 11.7946L93.8123 10.592L88.8746 10.5901L83.9369 10.5882L84.3662 11.3476ZM1.00791 18.1258V23.6383H2.26126H3.5146V18.1258V12.6132H2.26126H1.00791V18.1258Z" fill="white"/>
<path d="M35.3365 39.0907H36.1155L34.9675 36.8904C35.5757 36.7264 35.9515 36.3505 35.9515 35.5647C35.9515 34.3757 35.0905 34.1365 33.8878 34.1365H32.3162V39.0907H33.0132V37.0065H33.8878C34.0177 37.0065 34.1338 37.0065 34.2637 36.9997L35.3365 39.0907ZM33.9425 34.7242C34.6737 34.7242 35.234 34.813 35.234 35.5784C35.234 36.3437 34.6737 36.4189 33.9425 36.4189H33.0132V34.7242H33.9425ZM42.4207 39.0907H45.7827V38.4894H43.1177V36.8425H45.6255V36.2412H43.1177V34.7379H45.7827V34.1365H42.4207V39.0907ZM52.7751 34.1365H52.0781V39.0907H55.3923V38.4894H52.7751V34.1365ZM60.8609 39.0907H61.5716L61.9543 38.0179H64.2298L64.6193 39.0907H65.3709L63.5054 34.1365H62.6991L60.8609 39.0907ZM63.0818 34.8404L64.0111 37.4234H62.1661L63.0818 34.8404ZM70.8387 39.0907H71.6245L73.0663 37.0885L74.5013 39.0907H75.3213L73.4832 36.5145L75.1983 34.1365H74.4125L73.0937 35.9679L71.7885 34.1365H70.9617L72.6768 36.5419L70.8387 39.0907ZM88.4656 34.1365V39.0907H89.1626V37.1295H90.0168C91.2263 37.1295 92.0736 36.863 92.0736 35.633C92.0736 34.4099 91.2263 34.1365 90.0168 34.1365H88.4656ZM90.0715 34.7242C90.8026 34.7242 91.363 34.8267 91.363 35.633C91.363 36.4462 90.8026 36.5214 90.0715 36.5214H89.1626V34.7242H90.0715ZM97.2084 39.0907H97.9191L98.3017 38.0179H100.577L100.967 39.0907H101.718L99.8529 34.1365H99.0466L97.2084 39.0907ZM99.4292 34.8404L100.359 37.4234H98.5136L99.4292 34.8404ZM110.794 39.0907H111.573L110.425 36.8904C111.033 36.7264 111.409 36.3505 111.409 35.5647C111.409 34.3757 110.548 34.1365 109.345 34.1365H107.774V39.0907H108.471V37.0065H109.345C109.475 37.0065 109.591 37.0065 109.721 36.9997L110.794 39.0907ZM109.4 34.7242C110.131 34.7242 110.692 34.813 110.692 35.5784C110.692 36.3437 110.131 36.4189 109.4 36.4189H108.471V34.7242H109.4ZM118.575 34.1365H117.878V39.0907H118.575V37.5327L119.354 36.6717L121.056 39.0907H121.889L119.826 36.1592L121.678 34.1365H120.81L118.575 36.6307V34.1365Z" fill="white"/>
</svg>
