<svg width="400" height="359" viewBox="0 0 400 359" fill="none" xmlns="http://www.w3.org/2000/svg">
<g opacity="0.5">
<path d="M152.63 348.745L199.913 295.564L247.198 348.745H152.63ZM60.9269 289.379V237.41L70.8481 226.255V289.379H80.267V215.657L104.57 188.326L128.867 215.653V289.379H138.286V226.248L148.205 237.406V289.379H157.626V247.999L167.546 259.159V289.379H176.965V269.754L193.466 288.316L136.649 352.219C134.958 354.12 135.218 355.545 135.522 356.226C135.829 356.905 136.724 358.043 139.26 358.043H260.563C261.955 358.043 263.179 357.251 263.754 355.977C264.326 354.705 264.105 353.264 263.175 352.219L206.36 288.313L222.857 269.759V289.377H232.278V259.163L242.197 248.005V289.377H251.616V237.412L261.533 226.255V289.377H270.953V215.658L295.256 188.322L319.552 215.653V289.377H328.974V226.248L338.894 237.406V289.377H348.312V247.999L358.235 259.159V289.377H367.654V269.754L385.028 289.295L385.108 289.383H398L295.449 174.037L295.25 173.814L199.911 281.064L104.763 174.054L104.563 173.83L2.22514 288.942L1.82812 289.389L14.7199 289.383L32.1673 269.759V289.379H41.5868V259.163L51.5056 248.005V289.379H60.9269Z" stroke="black"/>
<path d="M99.6107 214.176H90.1875V289.38H99.6107V214.176Z" stroke="black"/>
<path d="M118.947 214.176H109.527V289.38H118.947V214.176Z" stroke="black"/>
<path d="M280.875 289.379H290.298V214.175H280.875V289.379Z" stroke="black"/>
<path d="M309.634 214.176H300.215V289.38H309.634V214.176Z" stroke="black"/>
<path d="M209.179 41.918C212.388 41.918 214.998 39.3089 214.998 36.1003C214.998 32.8893 212.388 30.2803 209.179 30.2803C205.968 30.2803 203.359 32.8893 203.359 36.1003C203.359 39.3089 205.968 41.918 209.179 41.918Z" stroke="black"/>
<path d="M126.46 163.703L199.908 81.0834L273.364 163.701L199.911 246.318L126.46 163.703ZM199.911 260.816L286.096 163.877L286.255 163.697L206.579 74.0833C234.503 44.1601 257.491 41.6759 261.824 41.482C263.833 41.3755 265.467 40.1264 266.436 37.9345L266.697 37.0407C267.05 35.2484 266.696 34.1099 265.373 32.8271L264.84 32.3799C246.841 17.2822 222.077 15.4482 212.267 15.3607C210.064 15.3418 204.676 15.2543 203.019 15.1203C181.122 13.3408 172.108 6.06477 168.684 1.88598L168.463 1.61682L168.122 1.52872C164.825 0.689414 161.495 0.422087 158.189 0.724898L156.858 0.84785L157.267 2.11783C157.923 4.1592 164.773 22.1498 202.357 25.1602C204.296 25.3168 209.725 25.4195 211.969 25.4569C218.422 25.5657 234.8 26.6014 248.817 33.8004C237.428 37.2493 215.476 47.1791 192.098 75.3056L113.717 163.536L113.559 163.716L199.71 260.593L199.911 260.816Z" stroke="black"/>
</g>
</svg>
