<svg width="89" height="89" viewBox="0 0 89 89" fill="none" xmlns="http://www.w3.org/2000/svg">
<path d="M0 10.7415V21.4829H10.7414H21.4828V10.7415V0.000133514H10.7414H0V10.7415ZM18.4138 10.7415V18.4139H10.7414H3.06897V10.7415V3.0691H10.7414H18.4138V10.7415Z" fill="white"/>
<path d="M6.13794 10.7413V15.3447H10.7414H15.3448V10.7413V6.13782H10.7414H6.13794V10.7413Z" fill="white"/>
<path d="M36.8275 1.53462V3.0691H35.293H33.7585V4.60358V6.13807H35.293H36.8275V4.60358V3.0691H39.8965H42.9654V4.60358V6.13807H41.431H39.8965V7.67255V9.20704H41.431H42.9654V10.7415V12.276H44.4999H46.0344V10.7415V9.20704H47.5689H49.1034V7.67255V6.13807H47.5689H46.0344V4.60358V3.0691H49.1034H52.1723V7.67255V12.276H53.7068H55.2413V13.8105V15.345H56.7758H58.3103V16.8795V18.4139H56.7758H55.2413V19.9484V21.4829H56.7758H58.3103V19.9484V18.4139H59.8448H61.3792V19.9484V21.4829H62.9137H64.4482V18.4139V15.345H62.9137H61.3792V13.8105V12.276H62.9137H64.4482V10.7415V9.20704H61.3792H58.3103V10.7415V12.276H56.7758H55.2413V6.13807V0.000133514H46.0344H36.8275V1.53462ZM46.0344 7.67255V9.20704H44.4999H42.9654V7.67255V6.13807H44.4999H46.0344V7.67255Z" fill="white"/>
<path d="M61.3794 3.06897V6.13794H62.9139H64.4484V3.06897V4.29153e-06H62.9139H61.3794V3.06897Z" fill="white"/>
<path d="M67.5173 10.7415V21.4829H78.2587H89.0001V10.7415V0.000133514H78.2587H67.5173V10.7415ZM85.9311 10.7415V18.4139H78.2587H70.5863V10.7415V3.0691H78.2587H85.9311V10.7415Z" fill="white"/>
<path d="M73.6553 10.7413V15.3447H78.2587H82.8622V10.7413V6.13782H78.2587H73.6553V10.7413Z" fill="white"/>
<path d="M24.5518 4.60346V6.13794H26.0862H27.6207V4.60346V3.06897H26.0862H24.5518V4.60346Z" fill="white"/>
<path d="M33.7585 10.7414V12.2759H35.293H36.8275V10.7414V9.20691H35.293H33.7585V10.7414Z" fill="white"/>
<path d="M24.5518 13.8102V15.3447H26.0862H27.6207V13.8102V12.2758H26.0862H24.5518V13.8102Z" fill="white"/>
<path d="M30.6897 19.9482V24.5517H27.6207H24.5517V26.0862V27.6206H23.0172H21.4828V26.0862V24.5517H16.8793H12.2759V26.0862V27.6206H10.7414H9.2069V26.0862V24.5517H7.67241H6.13793V26.0862V27.6206H7.67241H9.2069V29.1551V30.6896H7.67241H6.13793V32.2241V33.7586H7.67241H9.2069V35.2931V36.8275H7.67241H6.13793V38.362V39.8965H4.60345H3.06897V36.8275V33.7586H1.53448H0V36.8275V39.8965H1.53448H3.06897V41.431V42.9655H1.53448H0V46.0344V49.1034H1.53448H3.06897V50.6379V52.1724H1.53448H0V53.7069V55.2413H1.53448H3.06897V56.7758V58.3103H1.53448H0V61.3793V64.4483H1.53448H3.06897V62.9138V61.3793H4.60345H6.13793V58.3103V55.2413H7.67241H9.2069V56.7758V58.3103H12.2759H15.3448V61.3793V64.4483H18.4138H21.4828V62.9138V61.3793H23.0172H24.5517V64.4483V67.5172H26.0862H27.6207V69.0517V70.5862H26.0862H24.5517V73.6552V76.7241H27.6207H30.6897V79.7931V82.8621H29.1552H27.6207V81.3276V79.7931H26.0862H24.5517V81.3276V82.8621H26.0862H27.6207V85.931V89H49.1035H70.5862V87.4655V85.931H72.1207H73.6552V87.4655V89H75.1897H76.7241V87.4655V85.931H78.2586H79.7931V87.4655V89H82.8621H85.931V87.4655V85.931H87.4655H89V84.3965V82.8621H85.931H82.8621V81.3276V79.7931H84.3966H85.931V78.2586V76.7241H87.4655H89V75.1896V73.6552H87.4655H85.931V70.5862V67.5172H87.4655H89V64.4483V61.3793H87.4655H85.931V59.8448V58.3103H84.3966H82.8621V56.7758V55.2413H85.931H89V53.7069V52.1724H87.4655H85.931V49.1034V46.0344H82.8621H79.7931V44.5V42.9655H81.3276H82.8621V39.8965V36.8275H84.3966H85.931V39.8965V42.9655H87.4655H89V36.8275V30.6896H87.4655H85.931V27.6206V24.5517H84.3966H82.8621V26.0862V27.6206H79.7931H76.7241V26.0862V24.5517H75.1897H73.6552V27.6206V30.6896H67.5172H61.3793V29.1551V27.6206H64.4483H67.5172V26.0862V24.5517H64.4483H61.3793V26.0862V27.6206H58.3103H55.2414V29.1551V30.6896H58.3103H61.3793V32.2241V33.7586H58.3103H55.2414V35.2931V36.8275H52.1724H49.1035V35.2931V33.7586H47.569H46.0345V35.2931V36.8275H44.5H42.9655V33.7586V30.6896H41.431H39.8966V29.1551V27.6206H41.431H42.9655V26.0862V24.5517H44.5H46.0345V26.0862V27.6206H47.569H49.1035V29.1551V30.6896H50.6379H52.1724V27.6206V24.5517H50.6379H49.1035V23.0172V21.4827H50.6379H52.1724V18.4137V15.3448H50.6379H49.1035V18.4137V21.4827H47.569H46.0345V18.4137V15.3448H42.9655H39.8966V16.8792V18.4137H38.3621H36.8276V19.9482V21.4827H35.2931H33.7586V18.4137V15.3448H32.2241H30.6897V19.9482ZM42.9655 19.9482V21.4827H41.431H39.8966V19.9482V18.4137H41.431H42.9655V19.9482ZM36.8276 29.1551V33.7586H38.3621H39.8966V35.2931V36.8275H38.3621H36.8276V39.8965V42.9655H35.2931H33.7586V44.5V46.0344H32.2241H30.6897V47.5689V49.1034H33.7586H36.8276V50.6379V52.1724H33.7586H30.6897V50.6379V49.1034H29.1552H27.6207V53.7069V58.3103H24.5517H21.4828V59.8448V61.3793H19.9483H18.4138V59.8448V58.3103H16.8793H15.3448V56.7758V55.2413H16.8793H18.4138V53.7069V52.1724H19.9483H21.4828V50.6379V49.1034H19.9483H18.4138V47.5689V46.0344H16.8793H15.3448V47.5689V49.1034H13.8103H12.2759V47.5689V46.0344H10.7414H9.2069V49.1034V52.1724H10.7414H12.2759V53.7069V55.2413H10.7414H9.2069V53.7069V52.1724H7.67241H6.13793V50.6379V49.1034H4.60345H3.06897V47.5689V46.0344H6.13793H9.2069V44.5V42.9655H7.67241H6.13793V41.431V39.8965H7.67241H9.2069V41.431V42.9655H10.7414H12.2759V39.8965V36.8275H13.8103H15.3448V35.2931V33.7586H13.8103H12.2759V32.2241V30.6896H13.8103H15.3448V29.1551V27.6206H18.4138H21.4828V29.1551V30.6896H18.4138H15.3448V32.2241V33.7586H19.9483H24.5517V32.2241V30.6896H27.6207H30.6897V32.2241V33.7586H32.2241H33.7586V30.6896V27.6206H32.2241H30.6897V26.0862V24.5517H33.7586H36.8276V29.1551ZM85.931 32.2241V33.7586H82.8621H79.7931V32.2241V30.6896H82.8621H85.931V32.2241ZM67.5172 35.2931V36.8275H69.0517H70.5862V35.2931V33.7586H73.6552H76.7241V35.2931V36.8275H78.2586H79.7931V39.8965V42.9655H78.2586H76.7241V44.5V46.0344H78.2586H79.7931V47.5689V49.1034H81.3276H82.8621V50.6379V52.1724H79.7931H76.7241V55.2413V58.3103H78.2586H79.7931V62.9138V67.5172H81.3276H82.8621V65.9827V64.4483H84.3966H85.931V65.9827V67.5172H84.3966H82.8621V70.5862V73.6552H84.3966H85.931V75.1896V76.7241H82.8621H79.7931V78.2586V79.7931H78.2586H76.7241V81.3276V82.8621H73.6552H70.5862V84.3965V85.931H53.7069H36.8276V84.3965V82.8621H35.2931H33.7586V84.3965V85.931H32.2241H30.6897V84.3965V82.8621H32.2241H33.7586V76.7241V70.5862H32.2241H30.6897V69.0517V67.5172H29.1552H27.6207V64.4483V61.3793H30.6897H33.7586V62.9138V64.4483H32.2241H30.6897V65.9827V67.5172H33.7586H36.8276V61.3793V55.2413H38.3621H39.8966V53.7069V52.1724H41.431H42.9655V50.6379V49.1034H41.431H39.8966V47.5689V46.0344H41.431H42.9655V44.5V42.9655H47.569H52.1724V41.431V39.8965H53.7069H55.2414V42.9655V46.0344H56.7759H58.3103V41.431V36.8275H59.8448H61.3793V35.2931V33.7586H64.4483H67.5172V35.2931ZM33.7586 56.7758V58.3103H32.2241H30.6897V56.7758V55.2413H32.2241H33.7586V56.7758Z" fill="white"/>
<path d="M24.5517 36.8275V39.8965H23.0173H21.4828V38.362V36.8275H19.9483H18.4138V38.362V39.8965H16.8793H15.3448V41.431V42.9655H13.8104H12.2759V44.4999V46.0344H13.8104H15.3448V44.4999V42.9655H16.8793H18.4138V44.4999V46.0344H19.9483H21.4828V44.4999V42.9655H23.0173H24.5517V41.431V39.8965H27.6207H30.6897V38.362V36.8275H29.1552H27.6207V35.293V33.7585H26.0862H24.5517V36.8275ZM21.4828 41.431V42.9655H19.9483H18.4138V41.431V39.8965H19.9483H21.4828V41.431Z" fill="white"/>
<path d="M33.7585 35.2929V36.8274H35.293H36.8275V35.2929V33.7584H35.293H33.7585V35.2929Z" fill="white"/>
<path d="M24.5518 47.5688V49.1033H26.0862H27.6207V47.5688V46.0343H26.0862H24.5518V47.5688Z" fill="white"/>
<path d="M18.4138 56.7758V58.3103H19.9483H21.4828V56.7758V55.2413H19.9483H18.4138V56.7758Z" fill="white"/>
<path d="M61.3794 39.8965V42.9655H62.9139H64.4484V44.4999V46.0344H62.9139H61.3794V47.5689V49.1034H65.9828H70.5863V50.6379V52.1724H73.6553H76.7242V50.6379V49.1034H75.1897H73.6553V47.5689V46.0344H72.1208H70.5863V42.9655V39.8965H72.1208H73.6553V41.431V42.9655H75.1897H76.7242V41.431V39.8965H75.1897H73.6553V38.362V36.8275H72.1208H70.5863V38.362V39.8965H69.0518H67.5173V38.362V36.8275H64.4484H61.3794V39.8965ZM67.5173 41.431V42.9655H65.9828H64.4484V41.431V39.8965H65.9828H67.5173V41.431Z" fill="white"/>
<path d="M42.9656 47.5689V49.1034H44.5001H46.0345V50.6379V52.1724H44.5001H42.9656V53.7069V55.2414H41.4311H39.8966V56.7758V58.3103H41.4311H42.9656V56.7758V55.2414H44.5001H46.0345V56.7758V58.3103H47.569H49.1035V62.9138V67.5172H50.638H52.1725V65.9827V64.4483H53.7069H55.2414V61.3793V58.3103H56.7759H58.3104V56.7758V55.2414H61.3794H64.4483V56.7758V58.3103H62.9138H61.3794V59.8448V61.3793H59.8449H58.3104V62.9138V64.4483H59.8449H61.3794V67.5172V70.5862H53.7069H46.0345V72.1207V73.6552H42.9656H39.8966V72.1207V70.5862H41.4311H42.9656V69.0517V67.5172H41.4311H39.8966V69.0517V70.5862H38.3621H36.8276V72.1207V73.6552H38.3621H39.8966V75.1896V76.7241H38.3621H36.8276V78.2586V79.7931H38.3621H39.8966V81.3276V82.8621H41.4311H42.9656V81.3276V79.7931H41.4311H39.8966V78.2586V76.7241H42.9656H46.0345V78.2586V79.7931H47.569H49.1035V78.2586V76.7241H52.1725H55.2414V79.7931V82.8621H56.7759H58.3104V81.3276V79.7931H59.8449H61.3794V81.3276V82.8621H64.4483H67.5173V81.3276V79.7931H64.4483H61.3794V78.2586V76.7241H65.9828H70.5863V78.2586V79.7931H72.1207H73.6552V78.2586V76.7241H75.1897H76.7242V75.1896V73.6552H78.2587H79.7932V72.1207V70.5862H78.2587H76.7242V64.4483V58.3103H73.6552H70.5863V56.7758V55.2414H69.0518H67.5173V53.7069V52.1724H62.9138H58.3104V50.6379V49.1034H55.2414H52.1725V47.5689V46.0345H47.569H42.9656V47.5689ZM52.1725 52.1724V55.2414H53.7069H55.2414V56.7758V58.3103H53.7069H52.1725V56.7758V55.2414H50.638H49.1035V52.1724V49.1034H50.638H52.1725V52.1724ZM67.5173 59.8448V61.3793H65.9828H64.4483V59.8448V58.3103H65.9828H67.5173V59.8448ZM73.6552 69.0517V73.6552H69.0518H64.4483V69.0517V64.4483H69.0518H73.6552V69.0517ZM49.1035 75.1896V76.7241H47.569H46.0345V75.1896V73.6552H47.569H49.1035V75.1896Z" fill="white"/>
<path d="M67.5173 69.0517V70.5862H69.0518H70.5863V69.0517V67.5172H69.0518H67.5173V69.0517Z" fill="white"/>
<path d="M42.9656 62.9138V64.4482H44.5001H46.0345V62.9138V61.3793H44.5001H42.9656V62.9138Z" fill="white"/>
<path d="M24.5518 19.9484V21.4829H26.0862H27.6207V19.9484V18.4139H26.0862H24.5518V19.9484Z" fill="white"/>
<path d="M0 29.155V30.6895H1.53448H3.06897V29.155V27.6205H1.53448H0V29.155Z" fill="white"/>
<path d="M9.20703 62.9138V64.4482H10.7415H12.276V62.9138V61.3793H10.7415H9.20703V62.9138Z" fill="white"/>
<path d="M0 78.2586V89H10.7414H21.4828V78.2586V67.5172H10.7414H0V78.2586ZM18.4138 78.2586V85.931H10.7414H3.06897V78.2586V70.5862H10.7414H18.4138V78.2586Z" fill="white"/>
<path d="M6.13794 78.2586V82.8621H10.7414H15.3448V78.2586V73.6552H10.7414H6.13794V78.2586Z" fill="white"/>
</svg>
